General

Format                           : MPEG-4
Format profile                   : Base Media
Codec ID                         : isom
File size                        : 118 MiB
Duration                         : 5mn 39s
Overall bit rate                 : 2 926 Kbps
Encoded date                     : UTC 2012-01-27 23:07:40
Tagged date                      : UTC 2012-01-27 23:07:40

Video
ID                               : 1
Format                           : AVC
Format/Info                      : Advanced Video Codec
Format profile                   : High@L3.0
Format settings, CABAC           : Yes
Format settings, ReFrames        : 2 frames
Codec ID                         : avc1
Codec ID/Info                    : Advanced Video Coding
Duration                         : 5mn 39s
Bit rate mode                    : Variable
Bit rate                         : 2 804 Kbps
Maximum bit rate                 : 6 107 Kbps
Width                            : 720 pixels
Height                           : 480 pixels
Display aspect ratio             : 16:9
Original display aspect ratio    : 16:9
Frame rate mode                  : Constant
Frame rate                       : 24.000 fps
Standard                         : NTSC
Color space                      : YUV
Chroma subsampling               : 4:2:0
Bit depth                        : 8 bits
Scan type                        : Progressive
Bits/(Pixel*Frame)               : 0.338
Stream size                      : 116 MiB (98%)


Audio
ID                               : 2
Format                           : AAC
Format/Info                      : Advanced Audio Codec
Format profile                   : LC
Codec ID                         : 40
Duration                         : 5mn 39s
Bit rate mode                    : Variable
Bit rate                         : 59.9 Kbps
Maximum bit rate                 : 73.7 Kbps
Channel(s)                       : 2 channels
Channel positions                : Front: L R
Sampling rate                    : 44.1 KHz
Compression mode                 : Lossy
Stream size                      : 2.42 MiB (2%)